<svg id="svg" xmlns="http://www.w3.org/2000/svg" xmlns:xlink="http://www.w3.org/1999/xlink" width="400" height="400" viewBox="0, 0, 400,400"><g id="svgg"><path id="path0" d="M199.436 100.736 C 197.403 101.738,196.920 104.979,198.580 106.481 C 198.952 106.818,199.000 107.084,199.000 108.805 L 199.000 110.748 198.250 110.872 C 197.838 110.940,196.636 110.997,195.579 110.998 C 186.365 111.008,172.254 113.514,161.800 116.997 C 120.199 130.855,89.419 165.636,80.824 208.500 C 79.869 213.264,78.800 221.394,78.800 223.898 L 78.800 224.807 126.050 224.747 L 173.300 224.687 175.000 224.261 C 185.003 221.758,191.241 215.133,195.491 202.500 L 196.500 199.500 197.900 199.979 C 199.875 200.655,202.537 200.654,204.516 199.978 L 205.932 199.493 206.294 200.797 C 210.124 214.576,218.427 223.102,229.464 224.589 C 231.550 224.870,244.591 224.869,245.337 224.588 C 246.837 224.022,247.483 222.875,247.695 220.400 C 248.375 212.460,252.420 204.998,258.659 200.176 C 277.252 185.806,303.993 198.386,304.944 221.950 L 305.059 224.800 313.129 224.800 L 321.200 224.800 321.200 223.894 C 321.200 221.394,320.131 213.262,319.176 208.500 C 308.830 156.905,266.288 117.681,214.200 111.710 C 210.554 111.292,206.676 111.000,204.771 111.000 L 203.200 111.000 203.200 109.082 C 203.200 107.180,203.206 107.157,203.897 106.349 C 206.502 103.306,203.045 98.958,199.436 100.736 M197.601 116.650 C 197.602 117.558,197.694 118.630,197.806 119.032 C 197.974 119.639,197.925 120.017,197.522 121.232 C 195.992 125.845,195.725 132.115,196.075 155.300 C 196.309 170.823,195.858 181.357,194.932 181.976 C 190.908 184.669,189.659 191.346,192.379 195.634 L 192.944 196.525 192.186 199.113 C 189.002 209.991,183.792 216.787,176.633 219.400 C 173.164 220.666,175.868 220.600,127.378 220.600 L 83.208 220.600 83.322 219.650 C 90.224 162.436,136.840 118.328,193.700 115.213 C 195.240 115.129,196.748 115.046,197.050 115.030 L 197.600 115.000 197.601 116.650 M210.213 115.508 C 265.864 120.724,309.946 163.843,316.678 219.650 L 316.792 220.600 312.926 220.600 L 309.059 220.600 308.932 219.106 C 307.681 204.303,294.921 191.612,279.750 190.081 L 278.400 189.945 278.400 188.978 C 278.400 188.113,278.461 187.979,278.980 187.710 C 282.604 185.836,281.973 179.614,278.039 178.435 C 272.388 176.742,268.543 184.090,273.318 187.456 C 274.144 188.037,274.200 188.136,274.200 189.002 L 274.200 189.926 272.250 190.156 C 257.277 191.915,245.113 204.182,243.648 219.000 L 243.500 220.500 237.400 220.559 C 230.664 220.625,229.109 220.489,226.300 219.587 C 218.842 217.194,213.638 210.561,210.127 198.975 L 209.422 196.651 210.341 194.847 C 212.400 190.803,211.570 185.955,208.276 182.792 L 206.985 181.553 206.802 179.526 C 206.247 173.410,206.160 168.461,206.297 150.800 C 206.462 129.425,206.289 125.852,204.866 121.335 C 204.435 119.967,204.400 119.645,204.587 118.775 C 204.704 118.228,204.800 117.200,204.800 116.490 L 204.800 115.200 205.863 115.200 C 206.447 115.200,208.404 115.339,210.213 115.508 M201.563 125.500 C 202.280 130.068,202.408 136.888,202.124 155.400 C 201.958 166.220,202.074 172.741,202.533 178.450 L 202.658 180.000 201.176 180.000 L 199.694 180.000 199.829 178.350 C 200.331 172.242,200.462 162.602,200.206 150.581 C 199.897 136.036,200.022 130.918,200.825 125.335 C 201.087 123.518,201.258 123.556,201.563 125.500 M203.700 184.684 C 205.855 185.678,207.279 187.873,207.279 190.200 C 207.279 195.647,200.745 198.356,196.895 194.505 C 192.121 189.731,197.576 181.858,203.700 184.684 M78.800 229.500 L 78.800 231.400 200.000 231.400 L 321.200 231.400 321.200 229.500 L 321.200 227.600 200.000 227.600 L 78.800 227.600 78.800 229.500 M145.841 239.021 C 121.975 242.245,116.704 273.911,138.314 284.234 C 147.426 288.587,159.996 286.824,166.400 280.295 L 167.500 279.174 165.300 277.095 C 162.704 274.641,163.044 274.731,161.560 276.105 C 158.136 279.275,153.416 280.757,148.000 280.361 C 136.366 279.512,128.964 268.251,132.601 256.933 C 136.391 245.142,151.705 241.045,161.508 249.200 C 163.147 250.564,162.747 250.666,165.316 248.231 L 167.499 246.162 166.032 244.763 C 161.318 240.268,153.359 238.005,145.841 239.021 M216.600 239.010 C 207.796 240.111,202.670 245.056,202.721 252.400 C 202.772 259.813,206.042 262.487,219.200 265.876 C 228.441 268.256,230.791 269.824,230.798 273.614 C 230.813 282.152,214.952 283.402,204.461 275.689 C 203.977 275.333,203.768 275.654,202.089 279.338 L 201.428 280.787 202.664 281.717 C 207.618 285.441,216.643 287.391,223.952 286.317 C 232.940 284.995,238.063 279.657,237.500 272.201 C 237.034 266.033,233.507 263.034,223.705 260.466 C 221.832 259.976,219.130 259.265,217.700 258.887 C 211.631 257.282,209.151 255.015,209.446 251.340 C 210.000 244.445,221.879 242.401,231.594 247.529 C 233.596 248.585,233.336 248.762,234.682 245.425 C 235.811 242.626,235.907 242.948,233.587 241.715 C 229.431 239.506,222.045 238.330,216.600 239.010 M78.800 262.700 L 78.800 286.000 82.200 286.000 L 85.600 286.000 85.600 262.700 L 85.600 239.400 82.200 239.400 L 78.800 239.400 78.800 262.700 M276.400 262.688 L 276.400 286.000 287.786 286.000 C 301.526 286.000,303.157 285.823,307.778 283.831 C 325.559 276.165,326.011 250.145,308.507 241.916 C 303.690 239.652,302.838 239.546,288.650 239.454 L 276.400 239.375 276.400 262.688 M299.824 245.694 C 304.026 246.429,307.512 248.244,310.109 251.047 C 317.155 258.651,315.279 272.315,306.500 277.343 C 302.327 279.733,299.548 280.187,289.050 280.195 L 283.200 280.200 283.200 262.800 L 283.200 245.400 290.674 245.400 C 296.350 245.400,298.551 245.471,299.824 245.694 M78.800 297.300 L 78.800 299.200 200.000 299.200 L 321.200 299.200 321.200 297.300 L 321.200 295.400 200.000 295.400 L 78.800 295.400 78.800 297.300 " stroke="none" fill="#000000" fill-rule="evenodd"></path></g></svg>