<?xml version="1.0" encoding="UTF-8" standalone="no"?>
<!-- Generator: Adobe Illustrator 19.0.0, SVG Export Plug-In . SVG Version: 6.00 Build 0)  -->

<svg
   xmlns:dc="http://purl.org/dc/elements/1.1/"
   xmlns:cc="http://creativecommons.org/ns#"
   xmlns:rdf="http://www.w3.org/1999/02/22-rdf-syntax-ns#"
   xmlns:svg="http://www.w3.org/2000/svg"
   xmlns="http://www.w3.org/2000/svg"
   xmlns:sodipodi="http://sodipodi.sourceforge.net/DTD/sodipodi-0.dtd"
   xmlns:inkscape="http://www.inkscape.org/namespaces/inkscape"
   version="1.1"
   id="Capa_1"
   x="0px"
   y="0px"
   viewBox="0 0 1400 300"
   xml:space="preserve"
   sodipodi:docname="icsd-logo.svg"
   width="1400"
   height="300"
   inkscape:version="0.92.2 5c3e80d, 2017-08-06"><metadata
     id="metadata247"><rdf:RDF><cc:Work
         rdf:about=""><dc:format>image/svg+xml</dc:format><dc:type
           rdf:resource="http://purl.org/dc/dcmitype/StillImage" /><dc:title></dc:title></cc:Work></rdf:RDF></metadata><defs
     id="defs245" /><sodipodi:namedview
     pagecolor="#ffffff"
     bordercolor="#666666"
     borderopacity="1"
     objecttolerance="10"
     gridtolerance="10"
     guidetolerance="10"
     inkscape:pageopacity="0"
     inkscape:pageshadow="2"
     inkscape:window-width="1680"
     inkscape:window-height="956"
     id="namedview243"
     showgrid="false"
     scale-x="1"
     inkscape:snap-text-baseline="true"
     inkscape:zoom="0.35"
     inkscape:cx="578.34037"
     inkscape:cy="270.37139"
     inkscape:window-x="0"
     inkscape:window-y="1"
     inkscape:window-maximized="1"
     inkscape:current-layer="Capa_1" /><g
     id="g210"
     transform="translate(68.571429,-94.01818)"><path
       d="M 8.083,199.645 H 24.25 c 4.418,0 8,-3.582 8,-8 0,-5.955 -3.261,-11.153 -8.083,-13.933 v -10.567 c 0,-4.418 -3.582,-8 -8,-8 -4.418,0 -8,3.582 -8,8 v 10.567 c -4.823,2.78 -8.083,7.978 -8.083,13.933 -0.001,4.418 3.581,8 7.999,8 z"
       id="path204"
       inkscape:connector-curvature="0" /><path
       d="m 455.458,223.478 h 0.083 c 4.418,0 8,-3.582 8,-8 0,-4.418 -3.582,-8 -8,-8 h -16.167 c -4.418,0 -8,3.582 -8,8 0,4.418 3.582,8 8,8 h 0.083 v 24.27 h -24.25 c 0.174,-1.165 0.278,-2.385 0.278,-3.662 0,-22.705 -17.931,-33.242 -27.564,-38.902 -1.423,-0.836 -3.211,-1.888 -4.392,-2.688 v -10.851 c 0,-4.418 -3.582,-8 -8,-8 -4.418,0 -8,3.582 -8,8 v 10.803 c -1.179,0.806 -3.013,1.883 -4.464,2.736 -9.633,5.661 -27.563,16.197 -27.563,38.902 0,1.277 0.105,2.496 0.278,3.662 h -24.073 v -72.27 c 0,-4.418 -3.582,-8 -8,-8 -4.418,0 -8,3.582 -8,8 v 16 h -9.036 c -4.584,-24.878 -25.521,-37.191 -38.5,-44.818 -2.973,-1.747 -6.881,-4.044 -8.576,-5.477 v -21.379 c 0,-4.418 -3.582,-8 -8,-8 -4.418,0 -8,3.582 -8,8 v 21.285 c -1.628,1.425 -5.643,3.784 -8.684,5.572 -12.98,7.627 -33.916,19.941 -38.5,44.818 h -8.536 v -16 c 0,-4.418 -3.582,-8 -8,-8 -4.418,0 -8,3.582 -8,8 v 72.27 h -23.922 c 0.174,-1.165 0.278,-2.385 0.278,-3.662 0,-22.705 -17.931,-33.242 -27.563,-38.902 -1.423,-0.836 -3.211,-1.888 -4.392,-2.688 v -10.851 c 0,-4.418 -3.582,-8 -8,-8 -4.418,0 -8,3.582 -8,8 v 10.803 c -1.179,0.806 -3.013,1.884 -4.464,2.736 -9.633,5.661 -27.564,16.197 -27.564,38.902 0,1.277 0.105,2.496 0.278,3.662 H 24.167 v -24.27 h 0.083 c 4.418,0 8,-3.582 8,-8 0,-4.418 -3.582,-8 -8,-8 H 8.083 c -4.418,0 -8,3.582 -8,8 0,4.418 3.582,8 8,8 h 0.083 v 112.26 H 8 c -4.418,0 -8,3.582 -8,8 0,4.418 3.582,8 8,8 h 447.292 c 4.418,0 8,-3.582 8,-8 0,-4.362 -3.493,-7.902 -7.833,-7.992 V 223.478 Z m -103.955,20.609 c 0,-12.53 8.908,-18.784 19.669,-25.108 1.485,-0.873 2.948,-1.735 4.322,-2.632 1.375,0.896 2.837,1.759 4.322,2.632 10.762,6.324 19.67,12.578 19.67,25.108 0,1.369 -0.331,2.626 -0.744,3.662 h -46.496 c -0.412,-1.036 -0.743,-2.293 -0.743,-3.662 z m 87.955,19.661 v 71.99 h -7.917 v -24.26 c 0,-4.418 -3.582,-8 -8,-8 -4.418,0 -8,3.582 -8,8 v 24.26 h -7.979 v -24.26 c 0,-4.418 -3.582,-8 -8,-8 -4.418,0 -8,3.582 -8,8 v 24.26 h -7.979 v -24.26 c 0,-4.418 -3.582,-8 -8,-8 -4.418,0 -8,3.582 -8,8 v 24.26 h -7.979 v -24.26 c 0,-4.418 -3.582,-8 -8,-8 -4.418,0 -8,3.582 -8,8 v 24.26 h -7.979 v -24.26 c 0,-4.418 -3.582,-8 -8,-8 -4.418,0 -8,3.582 -8,8 v 24.26 h -7.917 v -71.99 z M 223.018,160.454 c 3.138,-1.844 6.042,-3.558 8.524,-5.332 2.482,1.773 5.386,3.488 8.524,5.332 11.717,6.885 25.888,15.226 30.201,31.024 h -77.45 c 4.313,-15.797 18.484,-24.138 30.201,-31.024 z m 72.69,47.024 v 128.26 h -23.833 v -63.85 c 0,-10.104 -6.543,-19.964 -19.449,-29.305 -8.639,-6.253 -17.201,-10.114 -17.562,-10.276 -2.08,-0.931 -4.458,-0.931 -6.538,0 -0.36,0.162 -8.922,4.022 -17.562,10.276 -12.905,9.342 -19.449,19.201 -19.449,29.305 v 63.85 h -23.441 v -128.26 z m -64.113,88 c -4.418,0 -8,3.582 -8,8 v 32.26 h -16.279 v -63.85 c 0,-4.445 4.606,-10.351 12.637,-16.204 4.338,-3.162 8.754,-5.65 11.643,-7.157 2.89,1.508 7.305,3.995 11.643,7.157 8.031,5.853 12.637,11.759 12.637,16.204 v 63.85 h -16.28 v -32.26 c -0.001,-4.418 -3.582,-8 -8.001,-8 z M 64.248,244.087 c 0,-12.53 8.908,-18.784 19.67,-25.108 1.485,-0.873 2.947,-1.735 4.322,-2.632 1.375,0.896 2.837,1.759 4.322,2.632 10.761,6.324 19.669,12.578 19.669,25.108 0,1.369 -0.331,2.626 -0.744,3.662 H 64.991 c -0.41,-1.034 -0.743,-2.293 -0.743,-3.662 z m -40.081,19.661 h 127.708 v 71.99 h -8.083 v -24.26 c 0,-4.418 -3.582,-8 -8,-8 -4.418,0 -8,3.582 -8,8 v 24.26 h -7.979 v -24.26 c 0,-4.418 -3.582,-8 -8,-8 -4.418,0 -8,3.582 -8,8 v 24.26 h -7.979 v -24.26 c 0,-4.418 -3.582,-8 -8,-8 -4.418,0 -8,3.582 -8,8 v 24.26 h -7.979 v -24.26 c 0,-4.418 -3.582,-8 -8,-8 -4.418,0 -8,3.582 -8,8 v 24.26 h -7.979 v -24.26 c 0,-4.418 -3.582,-8 -8,-8 -4.418,0 -8,3.582 -8,8 v 24.26 h -7.708 v -71.99 z"
       id="path206"
       inkscape:connector-curvature="0" /><path
       d="m 439.375,199.645 h 16.167 c 4.418,0 8,-3.582 8,-8 0,-5.955 -3.261,-11.153 -8.083,-13.933 v -10.567 c 0,-4.418 -3.582,-8 -8,-8 -4.418,0 -8,3.582 -8,8 v 10.567 c -4.822,2.78 -8.083,7.978 -8.083,13.933 -10e-4,4.418 3.581,8 7.999,8 z"
       id="path208"
       inkscape:connector-curvature="0" /></g><g
     id="g212"
     transform="translate(0,-163.54199)" /><g
     id="g214"
     transform="translate(0,-163.54199)" /><g
     id="g216"
     transform="translate(0,-163.54199)" /><g
     id="g218"
     transform="translate(0,-163.54199)" /><g
     id="g220"
     transform="translate(0,-163.54199)" /><g
     id="g222"
     transform="translate(0,-163.54199)" /><g
     id="g224"
     transform="translate(0,-163.54199)" /><g
     id="g226"
     transform="translate(0,-163.54199)" /><g
     id="g228"
     transform="translate(0,-163.54199)" /><g
     id="g230"
     transform="translate(0,-163.54199)" /><g
     id="g232"
     transform="translate(0,-163.54199)" /><g
     id="g234"
     transform="translate(0,-163.54199)" /><g
     id="g236"
     transform="translate(0,-163.54199)" /><g
     id="g238"
     transform="translate(0,-163.54199)" /><g
     id="g240"
     transform="translate(0,-163.54199)" /><flowRoot
     xml:space="preserve"
     id="flowRoot249"
     style="font-style:normal;font-weight:normal;font-size:40px;line-height:1.25;font-family:sans-serif;letter-spacing:0px;word-spacing:0px;fill:#000000;fill-opacity:1;stroke:none"><flowRegion
       id="flowRegion251"><rect
         id="rect253"
         width="650"
         height="196.66667"
         x="486.66666"
         y="53.333332" /></flowRegion><flowPara
       id="flowPara255" /></flowRoot><flowRoot
     xml:space="preserve"
     id="flowRoot257"
     style="font-style:normal;font-weight:normal;font-size:40px;line-height:1.25;font-family:sans-serif;letter-spacing:0px;word-spacing:0px;fill:#000000;fill-opacity:1;stroke:none"><flowRegion
       id="flowRegion259"><rect
         id="rect261"
         width="626.66669"
         height="193.33333"
         x="506.66666"
         y="60" /></flowRegion><flowPara
       id="flowPara263" /></flowRoot><text
     xml:space="preserve"
     style="font-style:normal;font-variant:normal;font-weight:600;font-stretch:normal;font-size:91.28921509px;line-height:1.25;font-family:Montserrat;-inkscape-font-specification:'Montserrat, Semi-Bold';font-variant-ligatures:normal;font-variant-caps:normal;font-variant-numeric:normal;font-feature-settings:normal;text-align:start;letter-spacing:0px;word-spacing:0px;writing-mode:lr-tb;text-anchor:start;fill:#000000;fill-opacity:1;stroke:none;stroke-width:1.04382837"
     x="590.70654"
     y="135.01273"
     id="text275"
     transform="scale(0.97705743,1.0234813)"><tspan
       sodipodi:role="line"
       id="tspan273"
       x="590.70654"
       y="135.01273"
       style="font-style:normal;font-variant:normal;font-weight:600;font-stretch:normal;font-size:91.28921509px;font-family:Montserrat;-inkscape-font-specification:'Montserrat, Semi-Bold';font-variant-ligatures:normal;font-variant-caps:normal;font-variant-numeric:normal;font-feature-settings:normal;text-align:start;writing-mode:lr-tb;text-anchor:start;stroke-width:1.04382837">ISLAMIC CENTER </tspan><tspan
       sodipodi:role="line"
       x="590.70654"
       y="249.12425"
       id="tspan277"
       style="font-style:normal;font-variant:normal;font-weight:600;font-stretch:normal;font-size:91.28921509px;font-family:Montserrat;-inkscape-font-specification:'Montserrat, Semi-Bold';font-variant-ligatures:normal;font-variant-caps:normal;font-variant-numeric:normal;font-feature-settings:normal;text-align:start;writing-mode:lr-tb;text-anchor:start;stroke-width:1.04382837"><tspan
   style="font-style:normal;font-variant:normal;font-weight:600;font-stretch:normal;font-size:91.28921509px;font-family:Montserrat;-inkscape-font-specification:'Montserrat, Semi-Bold';font-variant-ligatures:normal;font-variant-caps:normal;font-variant-numeric:normal;font-feature-settings:normal;text-align:start;writing-mode:lr-tb;text-anchor:start;stroke-width:1.04382837"
   id="tspan279">OF SAN DIEGO</tspan> </tspan></text>
<text
     xml:space="preserve"
     style="font-style:normal;font-weight:normal;font-size:96px;line-height:1.25;font-family:sans-serif;letter-spacing:0px;word-spacing:0px;fill:#000000;fill-opacity:1;stroke:none"
     x="1056.6667"
     y="130"
     id="text283"><tspan
       sodipodi:role="line"
       id="tspan281"
       x="1056.6667"
       y="214.9375" /></text>
</svg>