<?xml version="1.0" encoding="iso-8859-1"?>
<!-- Generator: Adobe Illustrator 19.0.0, SVG Export Plug-In . SVG Version: 6.00 Build 0)  -->
<svg version="1.1" id="Capa_1" xmlns="http://www.w3.org/2000/svg" xmlns:xlink="http://www.w3.org/1999/xlink" x="0px" y="0px"
	 viewBox="0 0 463.542 463.542" style="enable-background:new 0 0 463.542 463.542;" xml:space="preserve">
<g>
	<path d="M8.083,199.645H24.25c4.418,0,8-3.582,8-8c0-5.955-3.261-11.153-8.083-13.933v-10.567c0-4.418-3.582-8-8-8s-8,3.582-8,8
		v10.567c-4.823,2.78-8.083,7.978-8.083,13.933C0.083,196.063,3.665,199.645,8.083,199.645z"/>
	<path d="M455.458,223.478h0.083c4.418,0,8-3.582,8-8s-3.582-8-8-8h-16.167c-4.418,0-8,3.582-8,8s3.582,8,8,8h0.083v24.27h-24.25
		c0.174-1.165,0.278-2.385,0.278-3.662c0-22.705-17.931-33.242-27.564-38.902c-1.423-0.836-3.211-1.888-4.392-2.688v-10.851
		c0-4.418-3.582-8-8-8s-8,3.582-8,8v10.803c-1.179,0.806-3.013,1.883-4.464,2.736c-9.633,5.661-27.563,16.197-27.563,38.902
		c0,1.277,0.105,2.496,0.278,3.662h-24.073v-72.27c0-4.418-3.582-8-8-8s-8,3.582-8,8v16h-9.036
		c-4.584-24.878-25.521-37.191-38.5-44.818c-2.973-1.747-6.881-4.044-8.576-5.477v-21.379c0-4.418-3.582-8-8-8s-8,3.582-8,8v21.285
		c-1.628,1.425-5.643,3.784-8.684,5.572c-12.98,7.627-33.916,19.941-38.5,44.818h-8.536v-16c0-4.418-3.582-8-8-8s-8,3.582-8,8v72.27
		h-23.922c0.174-1.165,0.278-2.385,0.278-3.662c0-22.705-17.931-33.242-27.563-38.902c-1.423-0.836-3.211-1.888-4.392-2.688v-10.851
		c0-4.418-3.582-8-8-8s-8,3.582-8,8v10.803c-1.179,0.806-3.013,1.884-4.464,2.736c-9.633,5.661-27.564,16.197-27.564,38.902
		c0,1.277,0.105,2.496,0.278,3.662H24.167v-24.27h0.083c4.418,0,8-3.582,8-8s-3.582-8-8-8H8.083c-4.418,0-8,3.582-8,8s3.582,8,8,8
		h0.083v112.26H8c-4.418,0-8,3.582-8,8s3.582,8,8,8h447.292c4.418,0,8-3.582,8-8c0-4.362-3.493-7.902-7.833-7.992V223.478z
		 M351.503,244.087c0-12.53,8.908-18.784,19.669-25.108c1.485-0.873,2.948-1.735,4.322-2.632c1.375,0.896,2.837,1.759,4.322,2.632
		c10.762,6.324,19.67,12.578,19.67,25.108c0,1.369-0.331,2.626-0.744,3.662h-46.496
		C351.834,246.713,351.503,245.456,351.503,244.087z M439.458,263.748v71.99h-7.917v-24.26c0-4.418-3.582-8-8-8s-8,3.582-8,8v24.26
		h-7.979v-24.26c0-4.418-3.582-8-8-8s-8,3.582-8,8v24.26h-7.979v-24.26c0-4.418-3.582-8-8-8s-8,3.582-8,8v24.26h-7.979v-24.26
		c0-4.418-3.582-8-8-8s-8,3.582-8,8v24.26h-7.979v-24.26c0-4.418-3.582-8-8-8s-8,3.582-8,8v24.26h-7.917v-71.99H439.458z
		 M223.018,160.454c3.138-1.844,6.042-3.558,8.524-5.332c2.482,1.773,5.386,3.488,8.524,5.332
		c11.717,6.885,25.888,15.226,30.201,31.024h-77.45C197.13,175.681,211.301,167.34,223.018,160.454z M295.708,207.478v128.26
		h-23.833v-63.85c0-10.104-6.543-19.964-19.449-29.305c-8.639-6.253-17.201-10.114-17.562-10.276c-2.08-0.931-4.458-0.931-6.538,0
		c-0.36,0.162-8.922,4.022-17.562,10.276c-12.905,9.342-19.449,19.201-19.449,29.305v63.85h-23.441v-128.26H295.708z
		 M231.595,295.478c-4.418,0-8,3.582-8,8v32.26h-16.279v-63.85c0-4.445,4.606-10.351,12.637-16.204
		c4.338-3.162,8.754-5.65,11.643-7.157c2.89,1.508,7.305,3.995,11.643,7.157c8.031,5.853,12.637,11.759,12.637,16.204v63.85h-16.28
		v-32.26C239.595,299.06,236.014,295.478,231.595,295.478z M64.248,244.087c0-12.53,8.908-18.784,19.67-25.108
		c1.485-0.873,2.947-1.735,4.322-2.632c1.375,0.896,2.837,1.759,4.322,2.632c10.761,6.324,19.669,12.578,19.669,25.108
		c0,1.369-0.331,2.626-0.744,3.662H64.991C64.581,246.715,64.248,245.456,64.248,244.087z M24.167,263.748h127.708v71.99h-8.083
		v-24.26c0-4.418-3.582-8-8-8s-8,3.582-8,8v24.26h-7.979v-24.26c0-4.418-3.582-8-8-8s-8,3.582-8,8v24.26h-7.979v-24.26
		c0-4.418-3.582-8-8-8s-8,3.582-8,8v24.26h-7.979v-24.26c0-4.418-3.582-8-8-8c-4.418,0-8,3.582-8,8v24.26h-7.979v-24.26
		c0-4.418-3.582-8-8-8s-8,3.582-8,8v24.26h-7.708V263.748z"/>
	<path d="M439.375,199.645h16.167c4.418,0,8-3.582,8-8c0-5.955-3.261-11.153-8.083-13.933v-10.567c0-4.418-3.582-8-8-8s-8,3.582-8,8
		v10.567c-4.822,2.78-8.083,7.978-8.083,13.933C431.375,196.063,434.957,199.645,439.375,199.645z"/>
</g>
<g>
</g>
<g>
</g>
<g>
</g>
<g>
</g>
<g>
</g>
<g>
</g>
<g>
</g>
<g>
</g>
<g>
</g>
<g>
</g>
<g>
</g>
<g>
</g>
<g>
</g>
<g>
</g>
<g>
</g>
</svg>
